<svg viewBox="0 0 162 42" xmlns="http://www.w3.org/2000/svg" data-logo="logo">
        <g transform="translate(0, 1) rotate(0)" id="logogram" style="opacity: 1;"><path fill="#11111" d="M13.7544 6.5C13.7544 4.77609 13.0696 3.12278 11.8506 1.90381C10.6316 0.684818 8.9783 0 7.25439 0C5.53048 0 3.87719 0.684818 2.6582 1.90381C1.43921 3.12278 0.754395 4.77609 0.754395 6.5V26.1553L6.10734 29.9908V39.3346H8.40145V29.9908L13.7544 26.1553V6.5ZM11.4603 17.4926L8.40145 20.5515V17.6838L11.4603 14.625V17.4926ZM3.09631 14.625L6.15513 17.6838V20.5515L3.09631 17.4926V14.625ZM11.4603 11.375L7.25439 15.5809L3.04851 11.2794V8.41177L7.25439 12.6176L11.4603 8.41177V11.375ZM7.25439 2.29412C8.17939 2.2982 9.07754 2.60541 9.81126 3.16867C10.545 3.73192 11.0739 4.52016 11.3169 5.41268L7.25439 9.46323L3.19189 5.41268C3.42601 4.51129 3.95107 3.71235 4.68562 3.13985C5.42016 2.56733 6.32311 2.25324 7.25439 2.24631V2.29412ZM3.04851 24.9963V20.6949L6.10734 23.7537V27.171L3.04851 24.9963ZM8.40145 27.1829V23.7537L11.4603 20.6949V24.9844L8.40145 27.1829Z"></path></g>
        <g transform="translate(20, 1)" id="logotype" style="opacity: 1;"><path d="M14.29 33.52L14.29 33.52Q12.51 33.52 11.11 32.97Q9.71 32.41 8.73 31.39Q7.75 30.38 7.22 29.06Q6.70 27.75 6.70 26.24L6.70 26.24L6.70 25.86Q6.70 24.88 7.42 24.16Q8.13 23.45 9.12 23.45L9.12 23.45Q10.10 23.45 10.73 24.16Q11.36 24.88 11.36 25.86L11.36 25.86L11.36 26.14Q11.36 27.05 11.69 27.66Q12.02 28.27 12.65 28.61Q13.28 28.94 14.09 28.94L14.09 28.94Q15.52 28.94 16.17 28.01Q16.82 27.09 16.82 25.54L16.82 25.54L16.82 10.56Q16.82 9.55 17.52 8.85Q18.22 8.15 19.23 8.15L19.23 8.15Q20.21 8.15 20.93 8.85Q21.65 9.55 21.65 10.56L21.65 10.56L21.65 25.34Q21.65 27.86 20.77 29.69Q19.90 31.53 18.27 32.53Q16.64 33.52 14.29 33.52ZM34.42 33.52L34.42 33.52Q31.80 33.52 29.80 32.28Q27.80 31.04 26.70 28.85Q25.60 26.66 25.60 23.93L25.60 23.93Q25.60 21.24 26.70 19.10Q27.80 16.97 29.80 15.71Q31.80 14.45 34.42 14.45L34.42 14.45Q37.08 14.45 39.08 15.71Q41.07 16.97 42.17 19.10Q43.28 21.24 43.28 23.93L43.28 23.93Q43.28 26.66 42.17 28.85Q41.07 31.04 39.08 32.28Q37.08 33.52 34.42 33.52ZM34.42 29.25L34.42 29.25Q36.34 29.25 37.41 27.91Q38.48 26.56 38.48 23.93L38.48 23.93Q38.48 21.41 37.41 20.05Q36.34 18.68 34.42 18.68L34.42 18.68Q32.49 18.68 31.45 20.05Q30.39 21.41 30.39 23.93L30.39 23.93Q30.39 26.56 31.45 27.91Q32.49 29.25 34.42 29.25ZM56.75 33.52L56.75 33.52Q55.24 33.52 54.05 32.90Q52.86 32.27 52.09 31.30Q51.32 30.34 50.94 29.29L50.94 29.29L51.74 29.36L51.78 30.48Q51.81 31.70 51.13 32.53Q50.45 33.35 49.43 33.35L49.43 33.35Q48.45 33.35 47.79 32.67Q47.13 31.98 47.13 30.97L47.13 30.97L47.13 9.76Q47.13 8.78 47.79 8.11Q48.45 7.45 49.43 7.45L49.43 7.45Q50.45 7.45 51.11 8.11Q51.78 8.78 51.78 9.76L51.78 9.76L51.78 18.09L51.01 17.74Q51.71 16.69 52.53 15.95Q53.35 15.22 54.42 14.83Q55.49 14.45 56.78 14.45L56.78 14.45Q59.06 14.45 60.83 15.67Q62.59 16.90 63.59 19.02Q64.59 21.13 64.59 23.93L64.59 23.93Q64.59 26.77 63.59 28.94Q62.59 31.11 60.84 32.32Q59.09 33.52 56.75 33.52ZM55.66 29.25L55.66 29.25Q57.63 29.29 58.71 27.89Q59.80 26.49 59.80 24.00L59.80 24.00Q59.80 21.45 58.71 20.02Q57.63 18.58 55.70 18.58L55.70 18.58Q53.77 18.58 52.71 20.03Q51.64 21.48 51.64 23.97L51.64 23.97Q51.64 25.65 52.15 26.84Q52.66 28.03 53.56 28.64Q54.47 29.25 55.66 29.25ZM83.80 13.12L68.82 13.12Q67.84 13.12 67.18 12.45Q66.52 11.79 66.52 10.81L66.52 10.81Q66.52 9.79 67.18 9.15Q67.84 8.50 68.82 8.50L68.82 8.50L83.80 8.50Q84.82 8.50 85.47 9.15Q86.11 9.79 86.11 10.81L86.11 10.81Q86.11 11.79 85.47 12.45Q84.82 13.12 83.80 13.12L83.80 13.12ZM76.31 33.35L76.31 33.35Q75.27 33.35 74.60 32.67Q73.94 31.98 73.94 30.93L73.94 30.93L73.94 10.88L78.73 10.88L78.73 30.93Q78.73 31.98 78.05 32.67Q77.36 33.35 76.31 33.35ZM91.40 33.52L91.40 33.52Q89.79 33.52 88.37 32.90Q86.95 32.27 86.06 31.06Q85.17 29.85 85.17 28.06L85.17 28.06Q85.17 25.51 86.83 24.06Q88.49 22.60 92.20 22.04L92.20 22.04Q93.39 21.87 94.34 21.71Q95.28 21.55 95.86 21.22Q96.44 20.89 96.44 20.16L96.44 20.16Q96.44 19.63 96.14 19.21Q95.84 18.79 95.28 18.56Q94.72 18.34 93.88 18.34L93.88 18.34Q92.80 18.34 92.10 18.75Q91.40 19.17 90.94 19.73L90.94 19.73Q90.49 20.23 89.93 20.52Q89.37 20.82 88.63 20.82L88.63 20.82Q87.66 20.82 87.08 20.31Q86.50 19.80 86.50 18.93L86.50 18.93Q86.50 18.05 87.06 17.27Q87.62 16.48 88.62 15.85Q89.61 15.22 90.94 14.85Q92.27 14.48 93.81 14.48L93.81 14.48Q96.19 14.48 97.80 15.34Q99.41 16.20 100.24 17.74Q101.06 19.28 101.06 21.27L101.06 21.27L101.06 28.20Q101.06 28.66 101.16 28.82Q101.27 28.98 101.58 29.08L101.58 29.08Q102.14 29.29 102.63 29.78Q103.13 30.27 103.13 31.11L103.13 31.11Q103.13 32.05 102.44 32.72Q101.76 33.38 100.47 33.35L100.47 33.35Q99.03 33.31 98.24 32.63Q97.45 31.95 97.25 30.83L97.25 30.83L97.21 30.59L97.10 30.59Q96.16 32.02 94.86 32.77Q93.57 33.52 91.40 33.52ZM92.41 29.57L92.41 29.57Q93.53 29.57 94.44 29.11Q95.35 28.66 95.90 27.82Q96.44 26.98 96.44 25.82L96.44 25.82L96.44 24.60Q96.44 24.49 96.39 24.49Q96.33 24.49 96.23 24.56L96.23 24.56Q95.81 24.84 95.22 24.98Q94.62 25.13 93.97 25.21Q93.33 25.30 92.66 25.48L92.66 25.48Q91.05 25.79 90.44 26.31Q89.83 26.84 89.83 27.64L89.83 27.64Q89.83 28.52 90.47 29.04Q91.12 29.57 92.41 29.57ZM109.32 40.49L109.32 40.49Q107.81 40.49 106.69 39.95Q105.58 39.41 104.96 38.53Q104.35 37.66 104.35 36.78L104.35 36.78Q104.35 35.87 104.94 35.31Q105.54 34.75 106.52 34.75L106.52 34.75Q107.33 34.75 107.67 35.05Q108.02 35.34 108.27 35.63L108.27 35.63Q108.44 35.84 108.66 35.98Q108.86 36.12 109.04 36.12L109.04 36.12Q109.28 36.12 109.42 35.94Q109.56 35.77 109.67 35.48L109.67 35.48L110.83 32.37L105.08 17.91Q104.84 17.21 105.03 16.46Q105.22 15.71 105.78 15.17Q106.34 14.63 107.19 14.63L107.19 14.63Q107.99 14.63 108.57 15.10Q109.14 15.57 109.42 16.30L109.42 16.30L113.94 27.93L112.64 28.13L117.23 16.09Q117.47 15.46 118.05 15.04Q118.63 14.63 119.44 14.63L119.44 14.63Q120.31 14.63 120.89 15.13Q121.47 15.64 121.64 16.38Q121.81 17.11 121.53 17.77L121.53 17.77L114.22 36.26Q113.34 38.46 112.28 39.48Q111.21 40.49 109.32 40.49ZM132.45 33.52L132.45 33.52Q129.83 33.52 127.83 32.28Q125.84 31.04 124.74 28.85Q123.63 26.66 123.63 23.93L123.63 23.93Q123.63 21.24 124.74 19.10Q125.84 16.97 127.83 15.71Q129.83 14.45 132.45 14.45L132.45 14.45Q135.11 14.45 137.11 15.71Q139.10 16.97 140.21 19.10Q141.31 21.24 141.31 23.93L141.31 23.93Q141.31 26.66 140.21 28.85Q139.10 31.04 137.11 32.28Q135.11 33.52 132.45 33.52ZM132.45 29.25L132.45 29.25Q134.38 29.25 135.45 27.91Q136.51 26.56 136.51 23.93L136.51 23.93Q136.51 21.41 135.45 20.05Q134.38 18.68 132.45 18.68L132.45 18.68Q130.53 18.68 129.48 20.05Q128.43 21.41 128.43 23.93L128.43 23.93Q128.43 26.56 129.48 27.91Q130.53 29.25 132.45 29.25Z" fill="#111111"></path></g>
        
      </svg>